<?xml version="1.0" encoding="UTF-8" standalone="no"?>
<!-- Created with Inkscape (http://www.inkscape.org/) -->

<svg
   xmlns:dc="http://purl.org/dc/elements/1.1/"
   xmlns:cc="http://creativecommons.org/ns#"
   xmlns:rdf="http://www.w3.org/1999/02/22-rdf-syntax-ns#"
   xmlns:svg="http://www.w3.org/2000/svg"
   xmlns="http://www.w3.org/2000/svg"
   xmlns:sodipodi="http://sodipodi.sourceforge.net/DTD/sodipodi-0.dtd"
   xmlns:inkscape="http://www.inkscape.org/namespaces/inkscape"
   width="447"
   height="120"
   viewBox="0 0 118.26874 31.750001"
   version="1.1"
   id="svg8"
   inkscape:version="0.92.2 2405546, 2018-03-11"
   sodipodi:docname="logo-text.svg">
  <defs
     id="defs2" />
  <sodipodi:namedview
     id="base"
     pagecolor="#ffffff"
     bordercolor="#666666"
     borderopacity="1.0"
     inkscape:pageopacity="0.0"
     inkscape:pageshadow="2"
     inkscape:zoom="1.4"
     inkscape:cx="-10.862874"
     inkscape:cy="-115.83098"
     inkscape:document-units="px"
     inkscape:current-layer="layer1"
     showgrid="false"
     units="px"
     inkscape:window-width="1920"
     inkscape:window-height="1052"
     inkscape:window-x="0"
     inkscape:window-y="28"
     inkscape:window-maximized="1"
     fit-margin-top="0"
     fit-margin-left="0"
     fit-margin-right="0"
     fit-margin-bottom="0" />
  <metadata
     id="metadata5">
    <rdf:RDF>
      <cc:Work
         rdf:about="">
        <dc:format>image/svg+xml</dc:format>
        <dc:type
           rdf:resource="http://purl.org/dc/dcmitype/StillImage" />
        <dc:title></dc:title>
      </cc:Work>
    </rdf:RDF>
  </metadata>
  <g
     inkscape:label="Layer 1"
     inkscape:groupmode="layer"
     id="layer1"
     transform="translate(-12.829654,-258.44392)">
    <path
       inkscape:connector-curvature="0"
       style="fill:#4d4d4d;fill-opacity:1;stroke:none;stroke-width:0.02731048"
       d="m 22.883989,260.06463 c -0.07724,1.6e-4 -0.158065,0.007 -0.24062,0.0187 -0.13954,0.0168 -0.27619,0.0474 -0.409178,0.0912 -0.430736,0.13663 -0.810608,0.402 -1.127037,0.78021 -0.0079,0.009 -0.0157,0.0188 -0.02352,0.0282 -0.337116,0.40574 -0.604213,0.93868 -0.772214,1.58459 -0.03744,0.14395 -0.06955,0.29281 -0.09671,0.44545 -0.01577,0.0813 -0.03077,0.16343 -0.04401,0.24756 -0.01377,0.0875 -0.02477,0.20278 -0.03313,0.33423 -0.04235,0.47118 -0.04076,0.96683 0.0047,1.4658 0.0076,0.10869 0.01688,0.20747 0.02816,0.28826 0.0096,0.0684 0.02008,0.13655 0.03104,0.20451 0.0328,0.21994 0.07391,0.43913 0.12375,0.65577 0.323986,1.40812 0.959705,2.65365 1.748511,3.54444 0.03611,0.0412 0.07249,0.0821 0.109402,0.1221 0.118424,0.12842 0.244536,0.24998 0.375839,0.36357 0.505325,0.44515 1.054333,0.74923 1.612972,0.87089 0.03813,0.009 0.07608,0.0164 0.113616,0.0229 0.0018,3.7e-4 0.0077,6.2e-4 0.01013,9.9e-4 0.03546,0.006 0.07091,0.0115 0.106415,0.016 0.0936,0.0118 0.27371,0.0161 0.400217,0.01 0.106882,-0.006 0.211681,-0.0185 0.314283,-0.0384 0.01842,-0.003 0.03593,-0.006 0.05174,-0.009 0.02052,-0.004 0.04199,-0.01 0.06385,-0.0153 0.104573,-0.0249 0.206916,-0.0595 0.315456,-0.10588 0.01516,-0.006 0.03009,-0.0132 0.04513,-0.0199 0.0058,-0.003 0.01167,-0.005 0.01755,-0.008 0.04802,-0.0218 0.09557,-0.0448 0.142207,-0.07 4.94e-4,-2.5e-4 9.87e-4,-4.9e-4 0.0015,-7.4e-4 2.7e-5,-2e-5 8.2e-5,-3e-5 1.09e-4,-5e-5 0.003,-0.002 0.0059,-0.003 0.0089,-0.005 0.02638,-0.0143 0.05255,-0.0289 0.07836,-0.0442 0.03377,-0.0193 0.06633,-0.0389 0.09655,-0.0586 0.02181,-0.0142 0.04534,-0.0312 0.06956,-0.0494 0.422875,-0.30019 0.760467,-0.74293 1.007073,-1.28386 8.3e-5,-1.2e-4 1.24e-4,-3.7e-4 2.47e-4,-4.9e-4 1.24e-4,-3.7e-4 2.47e-4,-6.2e-4 3.7e-4,-9.9e-4 0.01354,-0.0297 0.0268,-0.0597 0.03979,-0.09 0.115787,-0.26678 0.212162,-0.55912 0.286118,-0.87538 0.452917,-1.93678 -0.04816,-4.47632 -1.235638,-6.26242 -0.126686,-0.19055 -0.262532,-0.37332 -0.404803,-0.54621 -0.201859,-0.24729 -0.414599,-0.46989 -0.634755,-0.66521 -0.0074,-0.007 -0.0149,-0.0131 -0.02235,-0.0197 -0.0142,-0.0125 -0.02846,-0.0248 -0.04273,-0.037 -0.207498,-0.17974 -0.419505,-0.33549 -0.630328,-0.46017 -0.464833,-0.2749 -0.929467,-0.41317 -1.371926,-0.42614 -0.03828,-0.002 -0.07651,-0.003 -0.114682,-0.003 z m 10.855114,6.9e-4 c -0.553983,0.008 -1.145464,0.21418 -1.732935,0.63652 -0.59388,0.42694 -1.124156,1.03346 -1.560217,1.74867 -0.0046,0.008 -0.0092,0.0152 -0.01382,0.0228 -0.02293,0.0379 -0.04562,0.0761 -0.06801,0.11458 -0.0099,0.017 -0.0198,0.0341 -0.0296,0.0512 -0.01889,0.033 -0.03757,0.0663 -0.05606,0.0997 -0.01072,0.0194 -0.02137,0.0388 -0.03195,0.0583 -0.01654,0.0305 -0.03287,0.0612 -0.04907,0.092 -0.01389,0.0264 -0.02765,0.0529 -0.04129,0.0796 -0.01478,0.0289 -0.02941,0.0579 -0.0439,0.087 -0.0084,0.0169 -0.01687,0.0338 -0.02518,0.0508 -0.02276,0.0465 -0.0451,0.0934 -0.0671,0.14061 -0.0022,0.005 -0.0043,0.009 -0.0065,0.0139 -0.549432,1.18326 -0.85892,2.55621 -0.822194,3.87659 0.0013,0.0464 0.0031,0.0924 0.0052,0.13815 4.93e-4,0.0108 9.87e-4,0.0214 0.0015,0.0322 7.4e-4,0.0152 0.0015,0.0304 0.0023,0.0455 0.0063,0.11951 0.01552,0.23733 0.02758,0.35322 8.64e-4,0.008 0.0015,0.0181 0.0024,0.026 0.0022,0.0206 0.0048,0.041 0.0072,0.0615 1.23e-4,0.002 3.7e-4,0.003 4.93e-4,0.005 0.0033,0.0276 0.0067,0.0552 0.01035,0.0826 0.0016,0.0121 0.0032,0.0241 0.0048,0.0362 0.0022,0.0163 0.0045,0.0325 0.0069,0.0487 0.0082,0.0571 0.01714,0.11371 0.02678,0.16978 8.64e-4,0.005 0.0017,0.009 0.0025,0.0143 0.0035,0.0202 0.0071,0.0405 0.01077,0.0606 0.0047,0.0259 0.0096,0.0516 0.01462,0.0772 0.317095,1.62561 1.207978,2.71473 2.417777,2.86392 0.448339,0.0553 0.924057,-0.0334 1.396835,-0.25188 0.236826,-0.10786 0.472875,-0.24577 0.692736,-0.40709 0.04951,-0.0363 0.106791,-0.0831 0.168238,-0.13618 0.218471,-0.17791 0.428736,-0.3824 0.62878,-0.60995 0.05785,-0.0651 0.114704,-0.13202 0.170744,-0.20051 0.06713,-0.0788 0.126533,-0.15276 0.173944,-0.21769 0.03548,-0.0486 0.0702,-0.0978 0.104601,-0.14727 0.28645,-0.40209 0.539794,-0.84536 0.743517,-1.30648 0.368227,-0.83344 0.609303,-1.71702 0.716261,-2.58404 0.0077,-0.0579 0.01499,-0.11599 0.02171,-0.17431 0.0063,-0.0547 0.01159,-0.1221 0.01606,-0.19667 0.03386,-0.42663 0.03421,-0.84669 4.93e-4,-1.25234 -0.0042,-0.0671 -0.009,-0.12728 -0.01483,-0.17597 -0.0072,-0.0601 -0.01518,-0.11944 -0.02368,-0.17837 -0.0293,-0.21543 -0.06852,-0.42601 -0.118361,-0.63011 -0.122684,-0.50241 -0.299934,-0.93834 -0.520339,-1.30269 -0.02594,-0.0436 -0.05238,-0.0865 -0.07964,-0.12829 -0.02556,-0.0392 -0.05484,-0.0801 -0.08684,-0.12199 -0.203424,-0.27879 -0.435746,-0.50545 -0.690016,-0.67689 -1.24e-4,-9e-5 -2.47e-4,-1.9e-4 -3.71e-4,-2.7e-4 -0.03782,-0.0269 -0.07415,-0.0506 -0.108228,-0.0705 -0.03017,-0.0175 -0.06054,-0.0343 -0.09105,-0.0503 -0.01014,-0.005 -0.02033,-0.0106 -0.03051,-0.0157 -0.328626,-0.1709 -0.687393,-0.25682 -1.063562,-0.25123 z m -18.400967,7.37661 c -0.461764,0.002 -0.884792,0.12295 -1.263697,0.3633 -0.0031,0.002 -0.0062,0.004 -0.0093,0.006 -0.01154,0.007 -0.02316,0.0146 -0.03462,0.0222 -0.01501,0.01 -0.02976,0.0203 -0.04449,0.0306 -0.577936,0.40383 -0.94203,1.05133 -1.104101,1.96374 -0.02063,0.11613 -0.03458,0.28187 -0.04203,0.46673 -0.01444,0.22897 -0.01347,0.46307 0.002,0.70058 0.0075,0.16556 0.01995,0.31882 0.03777,0.43867 0.260881,1.75504 1.149636,3.50282 2.433407,4.78547 0.149067,0.14893 0.301468,0.28888 0.456223,0.41979 0.04292,0.0376 0.08281,0.0712 0.118363,0.0996 0.02452,0.0196 0.04935,0.0384 0.07404,0.0575 0.01929,0.0152 0.03863,0.0301 0.05798,0.045 0.0035,0.003 0.0069,0.005 0.01035,0.008 0.669568,0.51302 1.373872,0.85286 2.045299,0.97955 0.112397,0.0212 0.247113,0.0318 0.427366,0.033 3.58e-4,0 6.66e-4,0 0.001,0 0.01666,2.4e-4 0.03328,4.9e-4 0.05009,6.1e-4 0.09671,0.004 0.19001,0.002 0.282439,-0.007 0.244611,-0.009 0.334249,-0.025 0.506204,-0.08 0.06234,-0.0199 0.122941,-0.042 0.182106,-0.0659 0.10562,-0.0418 0.205972,-0.0905 0.301428,-0.14588 0.0021,-10e-4 0.0042,-0.003 0.0063,-0.004 0.01552,-0.009 0.03089,-0.0183 0.04614,-0.0278 0.619442,-0.37879 1.01823,-1.02926 1.198886,-1.95569 0.0153,-0.0785 0.02816,-0.18457 0.03819,-0.30553 0.01654,-0.16287 0.02487,-0.33349 0.02512,-0.51368 5.55e-4,-0.0591 4.19e-4,-0.11851 -9.63e-4,-0.17826 -9.99e-4,-0.16972 -0.0068,-0.32996 -0.01952,-0.45308 -0.09929,-0.96292 -0.411,-1.93561 -0.870575,-2.83005 -0.0044,-0.009 -0.0087,-0.0172 -0.01307,-0.0258 -4.6e-5,-8e-5 -1.12e-4,-1.2e-4 -1.6e-4,-2.5e-4 -3.21e-4,-6.1e-4 -6.42e-4,-10e-4 -9.63e-4,-0.002 -0.211085,-0.4088 -0.452616,-0.79851 -0.717913,-1.16235 -0.0031,-0.004 -0.0062,-0.009 -0.0093,-0.0128 -0.01909,-0.0261 -0.03832,-0.052 -0.05766,-0.0778 -0.01156,-0.0155 -0.02313,-0.0309 -0.03478,-0.0463 -0.0089,-0.0117 -0.01779,-0.0233 -0.02672,-0.035 -0.839872,-1.09778 -1.901653,-1.94958 -3.009806,-2.31366 -0.146507,-0.0481 -0.290151,-0.0864 -0.430887,-0.115 -0.002,-4.5e-4 -0.0041,-9.5e-4 -0.0061,-10e-4 -0.01451,-0.003 -0.03014,-0.006 -0.04566,-0.009 -0.0048,-8.8e-4 -0.0095,-0.002 -0.01429,-0.003 -0.0026,-4.4e-4 -0.0051,-9e-4 -0.0077,-0.001 -0.184064,-0.0332 -0.362997,-0.0497 -0.536448,-0.0491 z m 25.209545,0.008 c -0.03148,1.6e-4 -0.06312,0.001 -0.09489,0.002 -0.177405,0.004 -0.349062,0.0206 -0.482626,0.0496 -1.188621,0.25767 -2.365051,1.08165 -3.31657,2.27621 -0.490043,0.6103 -0.915338,1.31154 -1.242359,2.07005 -0.324749,0.7429 -0.524779,1.47744 -0.599711,2.20132 -0.0014,0.0125 -0.0027,0.025 -0.0039,0.0375 -3.7e-4,0.004 -6.17e-4,0.007 -9.87e-4,0.0108 -0.03688,0.36499 -0.04092,0.71817 -0.01226,1.05262 0.0398,0.54618 0.14949,0.96169 0.361863,1.38729 0.127761,0.25603 0.218593,0.39398 0.384533,0.57123 0.04429,0.0496 0.09059,0.0969 0.138634,0.14204 0.0074,0.007 0.01492,0.0142 0.02246,0.0212 0.0066,0.006 0.01322,0.0121 0.0199,0.0181 0.0951,0.0866 0.196964,0.16456 0.305589,0.23316 0.0022,10e-4 0.0043,0.003 0.0065,0.004 0.01154,0.007 0.02325,0.0142 0.03494,0.0212 0.0163,0.01 0.03269,0.0196 0.04923,0.0291 0.0023,10e-4 0.0047,0.003 0.007,0.004 0.205126,0.11613 0.428573,0.19921 0.668894,0.24777 0.03964,0.008 0.08627,0.0146 0.137032,0.02 0.04939,0.006 0.103637,0.009 0.159756,0.0123 0.0042,2.5e-4 0.0084,3.7e-4 0.01264,7.4e-4 0.01466,7.4e-4 0.02872,0.002 0.04369,0.002 0.07714,0.003 0.156136,0.004 0.23678,3.7e-4 0.157844,-0.003 0.312622,-0.015 0.430887,-0.0356 0.477589,-0.0833 1.026529,-0.29783 1.511997,-0.59091 0.155305,-0.0938 0.32075,-0.20808 0.488762,-0.33557 0.215402,-0.16129 0.423993,-0.33726 0.624567,-0.5261 0.242794,-0.22521 0.471318,-0.46256 0.660786,-0.69114 0.829014,-1.00014 1.473635,-2.24606 1.772993,-3.42687 0.06876,-0.27125 0.120844,-0.53632 0.157089,-0.79393 0.0074,-0.0496 0.01441,-0.0993 0.0207,-0.14887 0.0049,-0.0384 0.0091,-0.0829 0.0128,-0.13111 0.03888,-0.39811 0.03815,-0.77586 1.23e-4,-1.12763 -0.0041,-0.05 -0.0088,-0.0945 -0.01419,-0.13154 -0.0094,-0.0647 -0.02037,-0.12804 -0.03216,-0.19053 -8.64e-4,-0.005 -0.0019,-0.01 -0.0028,-0.0149 -0.003,-0.0157 -0.006,-0.0313 -0.0092,-0.0468 -0.22016,-1.11038 -0.851193,-1.90331 -1.815347,-2.15801 -0.120457,-0.0318 -0.284252,-0.0519 -0.458891,-0.0602 -0.06081,-0.004 -0.122205,-0.006 -0.184239,-0.005 z m -12.681984,4.82414 c -0.09297,3.7e-4 -0.18582,0.003 -0.278545,0.006 -0.130538,0.003 -0.251571,0.008 -0.35461,0.0163 -0.08899,0.003 -0.166579,0.008 -0.2387,0.0148 -0.0919,0.007 -0.17293,0.015 -0.23662,0.0245 -0.486944,0.0725 -0.934841,0.18126 -1.350107,0.32922 -0.002,7.4e-4 -0.004,10e-4 -0.006,0.002 -0.0411,0.0147 -0.08186,0.0298 -0.122311,0.0453 -0.394854,0.15102 -0.759527,0.33942 -1.098766,0.56882 -0.0011,7.4e-4 -0.0022,0.001 -0.0033,0.002 -0.02197,0.0149 -0.0439,0.0298 -0.06566,0.0451 -0.0253,0.0173 -0.05076,0.0343 -0.07585,0.0521 -0.0301,0.0213 -0.06444,0.048 -0.100601,0.0772 -0.646363,0.4934 -1.199196,1.14935 -1.696823,1.9959 -0.08067,0.13724 -0.20351,0.37206 -0.345808,0.65695 -0.09951,0.19573 -0.20201,0.40611 -0.30895,0.63438 -0.102963,0.21623 -0.208505,0.44183 -0.31199,0.66841 -0.158632,0.34732 -0.293562,0.62591 -0.417605,0.85564 -3.58e-4,6.2e-4 -7.16e-4,0.001 -0.0011,0.002 -1.61e-4,2.5e-4 -3.21e-4,6.2e-4 -4.82e-4,8.6e-4 -0.273309,0.50564 -0.493983,0.77368 -0.799045,1.01513 -0.123936,0.0981 -0.241951,0.19941 -0.354822,0.30351 -0.172539,0.15534 -0.317805,0.30524 -0.460598,0.47345 -0.07406,0.0873 -0.144628,0.17649 -0.212083,0.2674 -0.556921,0.7416 -0.890837,1.59974 -0.997046,2.56686 -0.01052,0.0958 -0.01599,0.22123 -0.01776,0.35723 -0.0051,0.17135 -0.0017,0.34305 0.01035,0.51442 0.01001,0.18766 0.02634,0.36028 0.04779,0.47761 0.166581,0.91101 0.526323,1.71082 1.07487,2.38967 0.02649,0.0328 0.05846,0.0699 0.09351,0.10918 0.125773,0.14699 0.259713,0.28664 0.400963,0.41846 0.0069,0.006 0.01384,0.0129 0.02075,0.0193 0.02044,0.0189 0.04092,0.0377 0.06166,0.0562 0.02644,0.0238 0.05315,0.0473 0.08007,0.0706 0.0917,0.0836 0.177026,0.1573 0.243447,0.20808 0.689726,0.5273 1.564137,0.88844 2.463917,1.01763 0.04896,0.007 0.1133,0.0125 0.186213,0.0169 0.152727,0.0145 0.307941,0.0214 0.468225,0.0198 0.137009,1.3e-4 0.27405,-0.006 0.419312,-0.0202 0.142815,-0.007 0.268353,-0.0173 0.348956,-0.031 0.09763,-0.0166 0.374444,-0.0723 0.615178,-0.12381 0.951626,-0.20346 1.823978,-0.31704 2.723527,-0.35183 0.130754,-0.003 0.267874,-0.006 0.416484,-0.008 0.102736,-10e-4 0.201214,-0.002 0.297109,-0.003 0.09611,6.2e-4 0.192633,0.002 0.290068,0.004 1.162328,0.0271 1.961667,0.12094 3.08139,0.36176 0.610203,0.13123 0.929098,0.17369 1.3436,0.16994 0.226364,0.002 0.453204,-0.0116 0.678655,-0.0409 0.536291,-0.0619 1.000109,-0.19764 1.504316,-0.43627 0.01484,-0.007 0.0296,-0.0139 0.04438,-0.0209 0.0055,-0.003 0.01097,-0.005 0.01648,-0.008 0.09853,-0.0471 0.195716,-0.0972 0.291293,-0.15053 0.222591,-0.1222 0.413674,-0.24622 0.601685,-0.39237 0.05109,-0.0386 0.101665,-0.0779 0.151328,-0.11852 0.05561,-0.0455 0.118134,-0.10109 0.184079,-0.16301 0.156498,-0.14143 0.305037,-0.29332 0.445021,-0.45495 0.02451,-0.0281 0.04865,-0.0565 0.07249,-0.0851 0.0023,-0.003 0.0047,-0.006 0.007,-0.008 0.0056,-0.007 0.01124,-0.0135 0.0168,-0.0202 0.08772,-0.10219 0.166585,-0.19976 0.225792,-0.28239 0.03799,-0.053 0.07847,-0.11499 0.119964,-0.18216 0.41188,-0.62085 0.670947,-1.30713 0.773334,-2.05106 0.110068,-0.73926 0.05861,-1.47622 -0.14242,-2.17139 -0.209006,-0.74031 -0.584922,-1.42086 -1.109542,-2.00609 -0.005,-0.006 -0.0099,-0.0114 -0.01483,-0.0169 -2.47e-4,-2.5e-4 -3.7e-4,-5e-4 -6.17e-4,-7.4e-4 -8.63e-4,-9.9e-4 -0.0017,-0.002 -0.0026,-0.003 -0.08674,-0.0966 -0.176286,-0.18855 -0.274011,-0.28084 -0.02129,-0.0203 -0.04291,-0.0404 -0.06459,-0.0604 -0.11856,-0.11097 -0.242942,-0.21793 -0.373332,-0.32032 -0.01272,-0.01 -0.02453,-0.02 -0.03691,-0.0299 -0.264206,-0.22272 -0.376942,-0.35514 -0.580507,-0.65892 -0.176341,-0.26315 -0.412355,-0.72334 -1.080738,-2.10739 -0.23274,-0.48194 -0.459651,-0.89855 -0.690497,-1.26631 -0.336776,-0.53651 -0.681993,-0.96801 -1.066494,-1.33821 -0.896584,-0.86324 -1.944058,-1.35228 -3.342227,-1.56038 -0.06369,-0.009 -0.14477,-0.0176 -0.236673,-0.0245 -0.09809,-0.009 -0.20429,-0.0148 -0.34042,-0.018 -0.0061,-2.5e-4 -0.01203,-3.7e-4 -0.01814,-6.2e-4 -0.0083,-3.7e-4 -0.01615,-8.6e-4 -0.02448,-0.001 -0.18919,-0.0121 -0.377813,-0.018 -0.565892,-0.0172 z"
       id="path4623" />
    <g
       aria-label="PetChain"
       style="font-style:normal;font-weight:normal;font-size:213.36413574px;line-height:1.25;font-family:sans-serif;letter-spacing:0px;word-spacing:0px;fill:#4d4d4d;fill-opacity:1;stroke:none;stroke-width:5.33410358"
       id="text4715"
       transform="matrix(0.12338664,0,0,0.12338664,11.246664,256.07248)">
      <path
         d="m 293.08982,83.337527 q 14.93549,-3.627191 29.23089,-3.627191 11.09494,0 20.05623,2.773734 9.17466,2.56037 15.57558,8.321201 6.61429,5.547468 10.02812,14.508759 3.62719,8.9613 3.62719,21.54978 0,12.80185 -3.62719,21.97651 -3.62719,8.96129 -10.24148,14.72212 -6.61429,5.54747 -16.00231,8.10784 -9.17466,2.56037 -20.48296,2.56037 h -8.96129 v 54.83458 h -19.20278 z m 19.20278,74.037353 h 7.6811 q 7.25439,0 13.01522,-1.49355 5.97419,-1.70691 10.02811,-5.3341 4.05392,-3.62719 6.18756,-9.38802 2.13364,-5.76083 2.13364,-14.2954 0,-8.53457 -2.13364,-14.2954 -2.13364,-5.97419 -5.97419,-9.38802 -3.62719,-3.627189 -8.9613,-5.120738 -5.3341,-1.493549 -11.73503,-1.493549 -5.54746,0 -10.24147,0.640092 z"
         style="font-style:normal;font-variant:normal;font-weight:normal;font-stretch:normal;font-family:'Ubuntu Condensed';-inkscape-font-specification:'Ubuntu Condensed, ';fill:#4d4d4d;fill-opacity:1;stroke-width:5.33410358"
         id="path4725"
         inkscape:connector-curvature="0" />
      <path
         d="m 406.4962,178.49793 q 0.21336,8.10784 1.49355,14.93549 1.28018,6.61429 4.05392,11.73503 2.98709,4.90737 7.68111,7.68111 4.90737,2.77373 12.37512,2.77373 6.18756,0 11.30829,-1.70691 5.33411,-1.92028 7.68111,-3.20046 l 3.41383,14.72212 q -2.77373,1.92028 -9.38802,4.05392 -6.40093,2.34701 -15.36222,2.34701 -11.73503,0 -19.84287,-4.26729 -7.89447,-4.26728 -13.01521,-11.94839 -4.90737,-7.68111 -7.04101,-18.34931 -2.13365,-10.66821 -2.13365,-23.47006 0,-30.9378 10.24148,-45.2332 10.24148,-14.29539 27.09725,-14.29539 18.98941,0 26.88388,14.29539 7.89447,14.2954 7.89447,40.11246 0,2.34701 0,4.90738 0,2.347 -0.21336,4.90737 z m 18.56268,-48.64702 q -9.17466,0 -13.44194,9.17466 -4.05392,9.17465 -4.90738,24.53687 h 33.9249 q 0,-15.57558 -3.20046,-24.53687 -3.20046,-9.17466 -12.37512,-9.17466 z"
         style="font-style:normal;font-variant:normal;font-weight:normal;font-stretch:normal;font-family:'Ubuntu Condensed';-inkscape-font-specification:'Ubuntu Condensed, ';fill:#4d4d4d;fill-opacity:1;stroke-width:5.33410358"
         id="path4727"
         inkscape:connector-curvature="0" />
      <path
         d="M 503.90694,117.04906 H 532.071 v 15.78895 h -28.16406 v 61.66223 q 0,11.52166 4.05392,16.21568 4.26728,4.48064 11.3083,4.48064 3.62719,0 6.82765,-1.06682 3.41382,-1.06682 5.76083,-2.56037 l 3.62719,14.72213 q -8.74793,5.12074 -18.56268,5.12074 -15.78895,0 -23.68342,-8.74793 -7.68111,-8.9613 -7.68111,-29.44425 V 86.964717 l 18.34932,-3.200462 z"
         style="font-style:normal;font-variant:normal;font-weight:normal;font-stretch:normal;font-family:'Ubuntu Condensed';-inkscape-font-specification:'Ubuntu Condensed, ';fill:#4d4d4d;fill-opacity:1;stroke-width:5.33410358"
         id="path4729"
         inkscape:connector-curvature="0" />
      <path
         d="m 604.04139,232.26569 q -26.03042,0 -39.89909,-19.41613 -13.86867,-19.41614 -13.86867,-59.95533 0,-20.69632 3.84056,-34.99171 4.05392,-14.2954 11.09493,-23.256694 7.04102,-8.961294 16.6424,-12.801848 9.60139,-4.053919 20.90969,-4.053919 9.38802,0 17.49586,2.56037 8.10784,2.347005 13.22858,5.974196 l -5.76084,16.002305 q -5.12074,-3.413821 -11.09493,-5.547463 -5.76083,-2.133641 -13.44194,-2.133641 -17.06913,0 -24.75024,14.295394 -7.68111,14.08204 -7.68111,43.95301 0,30.08435 8.10784,46.30002 8.10783,16.21568 26.45715,16.21568 8.74793,0 14.08203,-2.13364 5.54747,-2.13365 10.66821,-5.54747 l 5.3341,15.14885 q -4.90737,3.84056 -13.01521,6.61429 -7.89447,2.77373 -18.34932,2.77373 z"
         style="font-style:normal;font-variant:normal;font-weight:normal;font-stretch:normal;font-family:'Ubuntu Condensed';-inkscape-font-specification:'Ubuntu Condensed, ';fill:#4d4d4d;fill-opacity:1;stroke-width:5.33410358"
         id="path4731"
         inkscape:connector-curvature="0" />
      <path
         d="M 655.19544,229.06523 V 66.695124 l 18.34932,-3.200462 v 54.194488 q 4.05392,-1.28018 8.74793,-2.13364 4.90737,-0.85346 9.81475,-0.85346 7.04101,0 13.22857,2.34701 6.18756,2.13364 10.66821,7.46774 4.69401,5.33411 7.25438,14.50877 2.77374,8.96129 2.77374,22.40323 v 67.63643 h -18.34932 v -66.14288 q 0,-16.6424 -4.26728,-24.32351 -4.26729,-7.68111 -16.00231,-7.68111 -6.18756,0 -13.86867,2.13364 v 96.01386 z"
         style="font-style:normal;font-variant:normal;font-weight:normal;font-stretch:normal;font-family:'Ubuntu Condensed';-inkscape-font-specification:'Ubuntu Condensed, ';fill:#4d4d4d;fill-opacity:1;stroke-width:5.33410358"
         id="path4733"
         inkscape:connector-curvature="0" />
      <path
         d="m 759.83387,119.39607 q 5.54747,-2.34701 11.73503,-3.62719 6.18756,-1.49355 13.44194,-1.49355 14.93549,0 24.32351,9.38802 9.38803,9.17466 9.38803,28.80416 v 74.25072 q -7.68111,2.13364 -15.78895,3.41382 -7.89447,1.28019 -15.57558,1.28019 -7.68111,0 -14.50876,-1.92028 -6.61429,-1.92028 -11.73503,-6.18756 -4.90738,-4.26728 -7.89447,-10.66821 -2.9871,-6.61429 -2.9871,-16.00231 0,-8.74793 2.56037,-15.14885 2.77373,-6.61429 7.46774,-10.88157 4.69401,-4.48065 11.09494,-6.61429 6.40092,-2.34701 13.86867,-2.34701 7.04101,0 15.57558,1.70692 V 153.1076 q 0,-12.37512 -4.90738,-17.2825 -4.69401,-4.90737 -13.6553,-4.90737 -4.90738,0 -9.38802,1.06682 -4.26729,0.85346 -9.17466,2.9871 z m 8.74793,77.02445 q 0,9.81475 5.12074,14.50876 5.12074,4.69401 14.50876,4.69401 5.76084,0 12.58849,-1.49355 v -35.63181 q -6.40093,-1.70691 -12.58849,-1.70691 -4.05391,0 -7.68111,1.06682 -3.62719,0.85346 -6.40092,3.20046 -2.56037,2.13364 -4.05392,5.9742 -1.49355,3.62719 -1.49355,9.38802 z"
         style="font-style:normal;font-variant:normal;font-weight:normal;font-stretch:normal;font-family:'Ubuntu Condensed';-inkscape-font-specification:'Ubuntu Condensed, ';fill:#4d4d4d;fill-opacity:1;stroke-width:5.33410358"
         id="path4735"
         inkscape:connector-curvature="0" />
      <path
         d="M 868.98964,229.06523 H 850.64033 V 117.04906 h 18.34931 z M 859.81499,97.206195 q -4.90738,0 -8.53457,-3.200462 -3.41383,-3.413826 -3.41383,-8.961293 0,-5.547468 3.41383,-8.74793 3.62719,-3.413826 8.53457,-3.413826 4.90737,0 8.3212,3.413826 3.62719,3.200462 3.62719,8.74793 0,5.547467 -3.62719,8.961293 -3.41383,3.200462 -8.3212,3.200462 z"
         style="font-style:normal;font-variant:normal;font-weight:normal;font-stretch:normal;font-family:'Ubuntu Condensed';-inkscape-font-specification:'Ubuntu Condensed, ';fill:#4d4d4d;fill-opacity:1;stroke-width:5.33410358"
         id="path4737"
         inkscape:connector-curvature="0" />
      <path
         d="m 902.31446,120.24952 q 7.89447,-2.347 17.06913,-3.84055 9.17466,-1.70692 16.85577,-1.70692 8.3212,0 15.14885,2.34701 6.82765,2.13364 11.52167,7.46774 4.90737,5.33411 7.46774,14.50877 2.77373,8.96129 2.77373,22.40323 v 67.63643 h -18.34931 v -66.14288 q 0,-16.6424 -4.26728,-24.32351 -4.26729,-7.68111 -16.00231,-7.68111 -6.18756,0 -13.86867,2.13364 v 96.01386 h -18.34932 z"
         style="font-style:normal;font-variant:normal;font-weight:normal;font-stretch:normal;font-family:'Ubuntu Condensed';-inkscape-font-specification:'Ubuntu Condensed, ';fill:#4d4d4d;fill-opacity:1;stroke-width:5.33410358"
         id="path4739"
         inkscape:connector-curvature="0" />
    </g>
  </g>
</svg>
