<?xml version="1.0" encoding="UTF-8" standalone="no"?>
<!-- Created with Inkscape (http://www.inkscape.org/) -->

<svg
   xmlns:dc="http://purl.org/dc/elements/1.1/"
   xmlns:cc="http://creativecommons.org/ns#"
   xmlns:rdf="http://www.w3.org/1999/02/22-rdf-syntax-ns#"
   xmlns:svg="http://www.w3.org/2000/svg"
   xmlns="http://www.w3.org/2000/svg"
   xmlns:sodipodi="http://sodipodi.sourceforge.net/DTD/sodipodi-0.dtd"
   xmlns:inkscape="http://www.inkscape.org/namespaces/inkscape"
   width="1024"
   height="1024"
   viewBox="0 0 270.93333 270.93334"
   version="1.1"
   id="svg8"
   inkscape:version="0.92.2 2405546, 2018-03-11"
   sodipodi:docname="logo.svg">
  <defs
     id="defs2" />
  <sodipodi:namedview
     id="base"
     pagecolor="#ffffff"
     bordercolor="#666666"
     borderopacity="1.0"
     inkscape:pageopacity="0.0"
     inkscape:pageshadow="2"
     inkscape:zoom="0.49497475"
     inkscape:cx="16.711362"
     inkscape:cy="684.55011"
     inkscape:document-units="px"
     inkscape:current-layer="layer1"
     showgrid="false"
     units="px"
     inkscape:window-width="1920"
     inkscape:window-height="1052"
     inkscape:window-x="0"
     inkscape:window-y="28"
     inkscape:window-maximized="1" />
  <metadata
     id="metadata5">
    <rdf:RDF>
      <cc:Work
         rdf:about="">
        <dc:format>image/svg+xml</dc:format>
        <dc:type
           rdf:resource="http://purl.org/dc/dcmitype/StillImage" />
        <dc:title></dc:title>
      </cc:Work>
    </rdf:RDF>
  </metadata>
  <g
     inkscape:label="Layer 1"
     inkscape:groupmode="layer"
     id="layer1"
     transform="translate(0,-26.06665)">
    <g
       id="g4638"
       transform="matrix(0.83656306,0,0,0.83656306,70.178119,53.984863)">
      <path
         style="fill:#d0d0d0;fill-opacity:1;stroke-width:0.26458332"
         d="m 50.63448,282.21222 c -35.81453,-0.84711 -61.6174,-2.79937 -72.36354,-5.47502 -6.12117,-1.5241 -6.20655,-3.0643 -0.2544,-4.58938 22.81394,-5.84544 117.320984,-7.70803 173.55648,-3.42051 16.25012,1.23894 26.83161,2.89359 30.26894,4.73319 0.93086,0.49818 0.71877,1.50915 -0.43717,2.08393 -5.6298,2.79935 -28.37006,5.08442 -62.50781,6.28119 -13.3178,0.46688 -54.90974,0.70244 -68.2625,0.3866 z M 25.85317,250.69524 C 18.84902,249.8789 11.24639,247.19605 5.22571,243.41616 -7.63716,235.3406 -16.06688,222.24372 -18.05383,207.2478 c -0.61505,-4.64198 -0.37388,-11.56345 0.55957,-16.05888 2.45791,-11.83717 8.48191,-21.72282 17.8579,-29.30565 1.52797,-1.23576 3.23728,-2.73775 3.79847,-3.33777 2.65795,-2.84189 6.06373,-8.95281 10.48783,-18.81804 2.43881,-5.43828 6.13383,-12.84474 7.89939,-15.8339 10.75653,-18.21117 23.81592,-27.245537 43.76204,-30.274167 4.36466,-0.66273 18.139749,-0.65173 22.423107,0.0179 14.616983,2.28514 25.099353,7.513397 34.164773,17.040257 5.67679,5.96575 9.74291,12.2806 15.38306,23.89053 6.92335,14.25133 8.4278,17.17662 10.20561,19.84375 2.09355,3.14084 3.41686,4.59068 6.18726,6.77879 2.76177,2.1813 6.58191,5.95944 8.6623,8.56704 5.87433,7.36309 9.52436,16.19168 10.61053,25.66459 0.48816,4.25728 0.1801,11.23712 -0.67725,15.34583 -2.86155,13.71354 -10.83636,25.16436 -22.75607,32.67496 -4.9992,3.14997 -11.43347,5.6547 -17.4625,6.79778 -2.72368,0.51639 -4.00246,0.5997 -8.99584,0.58602 -6.25141,-0.0172 -5.30696,0.10573 -15.875,-2.06451 -10.519038,-2.16019 -18.327606,-2.91034 -30.29479,-2.91034 -12.85781,0 -21.64418,0.93747 -33.60208,3.58518 -1.96453,0.43498 -4.82203,0.9588 -6.35,1.16406 -2.99972,0.40296 -9.02819,0.44988 -12.08131,0.094 z M -17.62802,146.90048 c -14.14597,-2.7848 -28.27805,-13.93931 -38.66927,-30.52181 -5.96443,-9.51815 -9.95683,-20.000247 -11.64736,-30.580296 -0.73438,-4.5961 -0.79403,-12.825272 -0.1202,-16.582371 1.31866,-7.352369 4.07466,-12.978712 8.31857,-16.982199 14.96446,-14.116712 42.68494,-2.325108 59.77583,25.427159 5.65556,9.183516 9.43196,18.973 11.20955,29.058297 0.70496,3.99963 0.96289,11.82081 0.51646,15.66081 -1.45101,12.48116 -7.85305,21.29295 -17.52267,24.11827 -2.42334,0.70806 -9.14868,0.93608 -11.86091,0.40214 z m 180.8427,-0.0716 c -8.68756,-1.85762 -15.30514,-8.83432 -17.89607,-18.86727 -2.22311,-8.60861 -1.56265,-20.09343 1.76924,-30.766177 3.14939,-10.088157 8.53398,-20.130722 15.42204,-28.76301 2.49391,-3.125419 8.15713,-8.821089 11.15584,-11.219759 19.19356,-15.352853 39.02845,-14.480124 47.30554,2.081464 2.53203,5.066324 3.58754,10.18281 3.60238,17.4625 0.0103,5.081061 -0.2331,7.623059 -1.19097,12.435415 -3.98028,19.997097 -17.37595,40.314567 -33.57737,50.927427 -5.05346,3.31031 -11.25392,5.91542 -16.08423,6.75775 -2.8276,0.4931 -8.08752,0.46892 -10.5064,-0.0483 z M 43.27717,82.177856 C 39.84397,81.698306 36.163,80.389034 32.75303,78.434563 17.86922,69.903705 6.20323,50.04798 2.70241,27.287879 2.02218,22.865467 1.74936,12.874276 2.19186,8.590619 c 1.89086,-18.3045022 10.5152,-30.965135 22.78712,-33.451742 2.8466,-0.576794 7.71677,-0.398155 10.44196,0.383014 9.77751,2.802696 18.79607,10.543582 26.12196,22.421228 6.39899,10.37482 10.74296,23.960666 11.87576,37.141634 0.37542,4.368377 0.16287,12.55391 -0.42597,16.404167 -2.23936,14.642541 -8.92068,25.2511 -18.42184,29.250084 -3.14666,1.324412 -7.83589,1.921835 -11.29368,1.438852 z m 71.10194,0.02349 C 101.87871,80.457932 92.87764,68.52235 90.419608,50.430581 89.49526,43.627083 89.907798,33.355587 91.413251,25.69204 94.589944,9.520743 102.64693,-6.0996454 112.49681,-15.183403 c 4.43209,-4.087375 9.37612,-7.22368 13.68875,-8.683614 4.56457,-1.545219 9.99485,-1.77423 14.09732,-0.594521 11.13126,3.20091 18.76327,14.8417277 20.99939,32.029619 0.47755,3.670602 0.39399,13.410817 -0.15091,17.594792 -2.06942,15.88919 -7.96822,30.447914 -16.73887,41.312796 -2.6951,3.338647 -7.70308,8.09734 -10.63194,10.102702 -6.27385,4.29564 -13.61905,6.426639 -19.38144,5.622967 z"
         id="path4625"
         inkscape:connector-curvature="0" />
      <path
         id="path4623"
         transform="scale(0.26458333)"
         d="m 109.05273,-95.382812 c -2.82836,0.006 -5.78769,0.250342 -8.81054,0.685546 -5.109379,0.617178 -10.112951,1.736004 -14.982424,3.337891 -15.77186,5.003034 -29.681229,14.719947 -41.267578,28.568359 -0.289388,0.339941 -0.574698,0.688223 -0.861329,1.033204 -12.343835,14.856672 -22.123844,34.370692 -28.27539,58.0214839 -1.370913,5.2707414 -2.546548,10.7215337 -3.541016,16.3105471 -0.577531,2.97578 -1.126739,5.984 -1.611328,9.064453 -0.5041962,3.204993 -0.9069264,7.42498 -1.2128906,12.238281 -1.5506656,17.252893 -1.4923913,35.401488 0.1738281,53.671875 0.2794491,3.979531 0.6181945,7.596544 1.03125,10.554688 0.3497775,2.504984 0.7353505,5.000014 1.1367185,7.488284 1.200826,8.05332 2.706153,16.07942 4.53125,24.01172 11.863043,51.55975 35.140541,97.16599 64.023438,129.7832 1.322059,1.51061 2.65413,3.00479 4.005859,4.4707 4.336195,4.70248 8.953936,9.15347 13.761719,13.3125 18.502983,16.29966 38.605403,27.43393 59.060543,31.88867 1.39617,0.31495 2.78572,0.59904 4.16016,0.83789 0.0663,0.0115 0.2812,0.0236 0.37109,0.0352 1.29831,0.21921 2.59642,0.42159 3.89649,0.58594 3.42708,0.43317 10.02214,0.59096 14.6543,0.35156 3.91362,-0.20227 7.75094,-0.67726 11.50781,-1.40625 0.67455,-0.10555 1.3156,-0.21718 1.89453,-0.33984 0.75138,-0.15921 1.53741,-0.35176 2.33789,-0.56055 3.82908,-0.91151 7.57646,-2.17799 11.55078,-3.87695 0.55513,-0.23187 1.10195,-0.48426 1.65234,-0.72852 0.21344,-0.0959 0.42757,-0.19067 0.64258,-0.28906 1.75814,-0.79833 3.49918,-1.6405 5.20703,-2.56445 0.018,-0.01 0.0367,-0.0176 0.0547,-0.0274 0.001,-6.8e-4 0.003,-0.001 0.004,-0.002 0.10946,-0.0593 0.21692,-0.12375 0.32617,-0.1836 0.96583,-0.52267 1.92407,-1.05769 2.86914,-1.61718 1.2364,-0.70674 2.42861,-1.42347 3.53516,-2.14453 0.79864,-0.52043 1.66013,-1.14098 2.54687,-1.8086 15.48397,-10.9916 27.84524,-27.20288 36.875,-47.00976 0.003,-0.006 0.005,-0.0118 0.008,-0.0176 0.005,-0.0115 0.0103,-0.0236 0.0156,-0.0352 0.49578,-1.08855 0.98146,-2.18682 1.45703,-3.29687 4.23968,-9.76857 7.76856,-20.47264 10.47656,-32.05274 16.58396,-70.91719 -1.76347,-163.905045 -45.24414,-229.304684 -4.63874,-6.977173 -9.61285,-13.669664 -14.82226,-20 -7.39129,-9.055067 -15.18095,-17.205585 -23.24219,-24.357422 -0.27228,-0.243735 -0.5456,-0.479257 -0.81836,-0.720703 -0.52006,-0.455975 -1.0422,-0.907867 -1.56445,-1.355469 -7.59772,-6.581442 -15.36062,-12.284294 -23.08008,-16.84961 -17.02031,-10.06586 -34.03332,-15.128571 -50.23438,-15.603515 -1.40164,-0.06301 -2.80149,-0.102584 -4.19922,-0.09961 z m 397.47071,0.02539 c -20.28469,0.301337 -41.94231,7.842349 -63.45313,23.306641 -21.7455,15.63298 -41.16209,37.841284 -57.1289,64.0292966 -0.16971,0.2776021 -0.33697,0.5574517 -0.50586,0.8359375 -0.83947,1.3876734 -1.67028,2.7859427 -2.49024,4.1953125 -0.3631,0.623 -0.72488,1.2478832 -1.08398,1.875 -0.69159,1.20949427 -1.37566,2.4258856 -2.05274,3.6503906 -0.39247,0.7092592 -0.78253,1.4205829 -1.16992,2.1347657 -0.60562,1.1168906 -1.20342,2.2405267 -1.79687,3.3691406 -0.50846,0.9672642 -1.01256,1.9383479 -1.51172,2.9140625 -0.54122,1.056954 -1.07694,2.119038 -1.60742,3.185547 -0.30789,0.619949 -0.61774,1.238175 -0.92188,1.861328 -0.8334,1.70423 -1.65134,3.421388 -2.45703,5.148438 -0.0789,0.169721 -0.15766,0.339824 -0.23633,0.509765 -20.11799,43.326296 -31.45021,93.598417 -30.10547,141.945317 0.0472,1.69787 0.11316,3.38171 0.18946,5.05859 0.0166,0.39403 0.0383,0.7847 0.0566,1.17773 0.0276,0.55553 0.0532,1.11286 0.084,1.66602 0.23209,4.37609 0.56825,8.69031 1.00977,12.93359 0.0299,0.31062 0.0565,0.66449 0.0879,0.95313 0.0819,0.75385 0.17493,1.50178 0.26367,2.25195 0.006,0.0553 0.013,0.11071 0.0195,0.16602 0.12042,1.01187 0.24608,2.02044 0.37891,3.02539 0.0578,0.44244 0.11761,0.88341 0.17773,1.32422 0.0823,0.59602 0.16535,1.19169 0.25195,1.78515 0.30148,2.0919 0.62774,4.16359 0.98047,6.2168 0.0296,0.17442 0.0619,0.34738 0.0918,0.52148 0.12917,0.74158 0.25874,1.4824 0.39453,2.21875 0.17259,0.94826 0.35208,1.88959 0.53516,2.82813 11.61076,59.52335 44.23134,99.4026 88.52929,104.86523 16.41637,2.02439 33.83529,-1.22289 51.14649,-9.22265 8.67163,-3.94948 17.31477,-8.99928 25.36523,-14.90625 1.81272,-1.33008 3.91026,-3.04282 6.16016,-4.98633 7.99955,-6.51427 15.69862,-14.00183 23.02344,-22.33399 2.11808,-2.38165 4.2,-4.83406 6.25195,-7.34179 2.4581,-2.88425 4.63314,-5.59345 6.36914,-7.97071 1.29919,-1.77909 2.57059,-3.58105 3.83008,-5.39257 10.48863,-14.72308 19.76505,-30.95384 27.22461,-47.83789 13.48294,-30.51735 22.3102,-62.87046 26.22656,-94.617192 0.28099,-2.120393 0.54907,-4.247202 0.79492,-6.382812 0.23056,-2.003074 0.42413,-4.470703 0.58789,-7.201172 1.23961,-15.621455 1.25256,-31.002515 0.0195,-45.855469 -0.15229,-2.457898 -0.33039,-4.66057 -0.54296,-6.443359 -0.26229,-2.199615 -0.55562,-4.373415 -0.86719,-6.53125 C 607.56962,15.684176 606.13357,7.9735331 604.30859,0.5 c -4.49216,-18.396128 -10.98234,-34.358096 -19.05273,-47.699219 -0.94973,-1.595402 -1.91805,-3.167444 -2.91602,-4.697265 -0.93574,-1.434466 -2.00805,-2.933659 -3.17968,-4.466797 -7.44854,-10.208294 -15.95528,-18.50768 -25.26563,-24.785157 -0.005,-0.0031 -0.009,-0.0066 -0.0137,-0.0098 -1.38482,-0.985573 -2.71499,-1.853816 -3.96289,-2.580078 -1.10455,-0.642833 -2.21682,-1.255003 -3.33399,-1.84375 -0.37148,-0.195774 -0.74434,-0.386368 -1.11718,-0.576172 -12.03298,-6.257691 -25.16958,-9.403834 -38.94336,-9.199219 z M -167.24609,174.74414 c -16.90793,0.0555 -32.39753,4.50193 -46.27149,13.30274 -0.11391,0.0721 -0.22633,0.14614 -0.33984,0.21874 -0.42276,0.27087 -0.84785,0.53546 -1.26758,0.81446 -0.54952,0.36527 -1.08957,0.74228 -1.62891,1.11914 -21.16169,14.78668 -34.49333,38.49554 -40.42773,71.9043 -0.75537,4.25254 -1.26603,10.32108 -1.53906,17.08984 -0.52855,8.38402 -0.49334,16.95584 0.0723,25.65234 0.2748,6.0623 0.73049,11.67406 1.38282,16.0625 9.55241,64.26237 42.09504,128.25937 89.10156,175.22461 5.45825,5.45347 11.03857,10.57783 16.70508,15.3711 1.57156,1.37558 3.03213,2.60693 4.33398,3.64648 0.89785,0.71695 1.80695,1.40449 2.71094,2.10547 0.7065,0.55577 1.41433,1.10324 2.12304,1.64844 0.1267,0.096 0.2521,0.19533 0.37891,0.29101 24.51688,18.78469 50.305662,31.22807 74.890626,35.86719 4.115525,0.77662 9.048282,1.16457 15.648437,1.20703 0.01288,8e-5 0.02421,-8e-5 0.03711,0 0.610034,0.0101 1.21866,0.0188 1.833985,0.0215 3.541145,0.13235 6.95742,0.0576 10.341797,-0.24024 8.95666,-0.32206 12.238839,-0.91453 18.535156,-2.92969 2.282726,-0.73058 4.50159,-1.53913 6.667969,-2.41211 3.867402,-1.53021 7.541887,-3.31227 11.0371091,-5.34179 0.077957,-0.0448 0.154649,-0.0916 0.2324219,-0.13672 0.5680925,-0.33247 1.1310274,-0.67168 1.68945312,-1.01758 C 21.68347,530.34319 36.285491,506.52568 42.900391,472.60352 c 0.560414,-2.87386 1.031077,-6.7581 1.398437,-11.1875 0.605717,-5.96352 0.910759,-12.21085 0.919922,-18.8086 0.02032,-2.16562 0.01529,-4.33934 -0.03516,-6.52734 -0.0365,-6.21456 -0.250004,-12.08183 -0.714844,-16.58985 -3.635608,-35.25829 -15.04915,-70.87424 -31.876953,-103.625 -0.16063,-0.31378 -0.316913,-0.63018 -0.478516,-0.94335 -0.0017,-0.003 -0.0041,-0.006 -0.0059,-0.01 -0.01179,-0.0228 -0.02337,-0.0456 -0.03516,-0.0684 -7.7291046,-14.96872 -16.5729859,-29.23832 -26.28711,-42.56055 -0.113231,-0.15568 -0.22637,-0.31136 -0.339844,-0.46679 -0.699135,-0.9552 -1.403262,-1.90438 -2.111328,-2.84961 -0.423156,-0.56655 -0.847075,-1.13221 -1.273437,-1.69532 -0.325283,-0.42827 -0.651423,-0.8551 -0.978516,-1.28125 -30.752756,-40.19615 -69.630915,-71.38582 -110.207032,-84.71679 -5.36449,-1.76247 -10.62416,-3.16244 -15.77734,-4.21094 -0.0742,-0.0162 -0.14844,-0.0348 -0.22266,-0.0508 -0.53128,-0.11475 -1.10347,-0.21676 -1.67188,-0.32031 -0.17424,-0.0327 -0.34944,-0.0678 -0.52343,-0.0996 -0.0942,-0.0163 -0.18806,-0.0328 -0.28321,-0.0488 -6.7397,-1.21666 -13.29152,-1.81967 -19.64257,-1.79883 z m 923.07226,0.29688 c -1.15256,0.006 -2.31109,0.0364 -3.47461,0.082 -6.49587,0.15823 -12.78128,0.75425 -17.67187,1.81445 -43.52251,9.43489 -86.59864,39.6055 -121.43946,83.3457 -17.94339,22.34665 -33.516,48.02341 -45.49023,75.79688 -11.891,27.20203 -19.21527,54.09776 -21.95898,80.60351 -0.0499,0.45904 -0.0975,0.91696 -0.14454,1.375 -0.0129,0.13224 -0.0244,0.26427 -0.0371,0.39649 -1.35022,13.36451 -1.49819,26.2966 -0.44922,38.54297 1.45747,19.99881 5.47374,35.21311 13.25,50.79687 4.67806,9.37489 8.00401,14.42591 14.08007,20.91602 1.62167,1.81514 3.31698,3.54658 5.07618,5.20117 0.27254,0.26108 0.5465,0.52027 0.82226,0.77734 0.24218,0.22164 0.48388,0.4435 0.72852,0.66211 3.48206,3.1695 7.21202,6.02521 11.18945,8.53711 0.0793,0.0505 0.15687,0.10409 0.23633,0.1543 0.42247,0.2647 0.85134,0.52034 1.2793,0.77734 0.59687,0.36182 1.19697,0.71855 1.80273,1.06446 0.0857,0.0484 0.17188,0.0964 0.25781,0.14453 7.51093,4.25222 15.69263,7.29404 24.49219,9.07226 1.45138,0.29353 3.159,0.53424 5.01758,0.73242 1.80853,0.20535 3.79478,0.34469 5.84961,0.44922 0.15327,0.0104 0.30915,0.0158 0.46289,0.0254 0.53672,0.0251 1.05177,0.0598 1.59961,0.0781 2.82455,0.127 5.71706,0.1349 8.66992,0.0137 5.77962,-0.12594 11.44698,-0.54757 15.77734,-1.30273 17.48742,-3.04955 37.58737,-10.90517 55.36328,-21.63672 5.68662,-3.43314 11.74456,-7.6191 17.89649,-12.28711 7.88717,-5.90571 15.52496,-12.34909 22.86914,-19.26367 8.89013,-8.24633 17.2578,-16.93713 24.19531,-25.30664 30.3552,-36.62109 53.95861,-82.24168 64.91992,-125.47852 2.51787,-9.93182 4.42478,-19.63761 5.75196,-29.07031 0.26941,-1.81735 0.52745,-3.63488 0.75781,-5.45117 0.1781,-1.40464 0.33207,-3.03468 0.46875,-4.80079 1.42371,-14.57689 1.39702,-28.4088 0.006,-41.28906 -0.14871,-1.83129 -0.32179,-3.46008 -0.51953,-4.8164 -0.34561,-2.37058 -0.74579,-4.68864 -1.17774,-6.97657 -0.0334,-0.18267 -0.0676,-0.36465 -0.10156,-0.54687 -0.11025,-0.57322 -0.22028,-1.14689 -0.33594,-1.71485 -8.06137,-40.65757 -31.16727,-69.69161 -66.4707,-79.01757 -4.41065,-1.16514 -10.40819,-1.89889 -16.80273,-2.20313 -2.22669,-0.13981 -4.47467,-0.20993 -6.7461,-0.19726 z M 291.46289,351.68164 c -3.40428,0.0142 -6.80399,0.0937 -10.19922,0.22266 -4.77976,0.10746 -9.21148,0.30197 -12.98437,0.5957 -3.25858,0.12225 -6.09946,0.29798 -8.74024,0.54102 -3.36499,0.25288 -6.33203,0.54939 -8.66406,0.89648 -17.82996,2.65372 -34.23013,6.63731 -49.43555,12.05469 -0.0735,0.0262 -0.14728,0.0519 -0.2207,0.0781 -1.50473,0.53791 -2.99731,1.09166 -4.47852,1.65821 -14.45798,5.53003 -27.81085,12.42842 -40.23242,20.82812 -0.0399,0.0265 -0.0793,0.0536 -0.11914,0.0801 -0.80448,0.54488 -1.60753,1.09288 -2.40429,1.65039 -0.92631,0.63489 -1.85864,1.25673 -2.77735,1.9082 -1.10207,0.7815 -2.35966,1.75918 -3.68359,2.82617 -23.66724,18.06629 -43.90975,42.08461 -62.130862,73.08204 -2.953767,5.02492 -7.451723,13.62332 -12.662109,24.05468 -3.643589,7.167 -7.396782,14.87012 -11.3125,23.22852 -3.770082,7.91753 -7.634596,16.17812 -11.423828,24.47461 -5.808435,12.71748 -10.749032,22.91816 -15.291016,31.33008 -0.01307,0.0242 -0.026,0.052 -0.03906,0.0762 -0.0059,0.0109 -0.01172,0.0223 -0.01758,0.0332 -10.007505,18.51456 -18.08768,28.32888 -29.2578121,37.16992 -4.53806978,3.59185 -8.8593018,7.30174 -12.9921875,11.11328 -6.3176794,5.68797 -11.6367304,11.17669 -16.8652344,17.33594 -2.711849,3.1946 -5.295702,6.4624 -7.765625,9.79102 -20.392201,27.15435 -32.618872,58.57591 -36.507813,93.98828 -0.385253,3.50811 -0.585397,8.10052 -0.65039,13.08008 -0.185951,6.27419 -0.06139,12.56109 0.378906,18.83593 0.366644,6.87136 0.964431,13.19214 1.75,17.48829 6.099553,33.35769 19.271841,62.6434 39.357422,87.5 0.970032,1.20045 2.140512,2.55811 3.423828,3.99804 4.60529,5.38191 9.509655,10.49559 14.6816408,15.32227 0.2518715,0.23729 0.506626,0.47117 0.7597656,0.70703 0.7484727,0.69094 1.4984595,1.37972 2.2578125,2.05859 0.9679521,0.87285 1.9460718,1.73379 2.9316406,2.58594 3.35773707,3.05963 6.4819998,5.75981 8.9140625,7.61914 25.254992,19.30749 57.272419,32.53119 90.21875,37.26172 1.792808,0.25741 4.148601,0.45889 6.818359,0.61719 5.59224,0.5314 11.27557,0.78206 17.14453,0.72656 5.01672,0.006 10.0346,-0.2344 15.35352,-0.74023 5.22931,-0.26089 9.82602,-0.63237 12.77734,-1.13477 3.57502,-0.6085 13.71066,-2.64858 22.52539,-4.5332 34.84471,-7.44982 66.78673,-11.60865 99.72461,-12.88282 4.7877,-0.12737 9.80848,-0.2289 15.25,-0.30664 3.76173,-0.0537 7.36765,-0.0878 10.87891,-0.10742 3.51919,0.0227 7.05342,0.0652 10.62109,0.14844 42.5598,0.99273 71.82841,4.42838 112.82812,13.24609 22.34322,4.80529 34.01987,6.36004 49.19727,6.22266 8.28854,0.0809 16.59451,-0.42405 24.84961,-1.49609 19.63685,-2.26729 36.62,-7.23698 55.08203,-15.97461 0.54339,-0.25131 1.08382,-0.50918 1.625,-0.76563 0.20158,-0.0974 0.40155,-0.19276 0.60352,-0.29101 3.60781,-1.72507 7.16631,-3.56056 10.66601,-5.51172 8.15035,-4.47452 15.14706,-9.01576 22.03125,-14.36719 1.87059,-1.41435 3.72256,-2.85394 5.54102,-4.33984 2.03628,-1.66392 4.3256,-3.70148 6.74023,-5.96875 5.73032,-5.17853 11.16925,-10.73991 16.29492,-16.65821 0.89752,-1.03043 1.7815,-2.07011 2.6543,-3.11718 0.0859,-0.10358 0.17206,-0.20677 0.25781,-0.31055 0.20485,-0.24682 0.41176,-0.49251 0.61524,-0.74024 3.21191,-3.7419 6.09965,-7.31444 8.26758,-10.33984 1.39094,-1.94111 2.87334,-4.21057 4.39257,-6.66992 15.08143,-22.73325 24.56739,-47.86181 28.31641,-75.10156 4.03028,-27.06905 2.14605,-54.05323 -5.21484,-79.50782 -7.65298,-27.10713 -21.41748,-52.026 -40.62696,-73.45507 -0.18151,-0.20449 -0.36087,-0.41588 -0.54297,-0.61915 -0.008,-0.009 -0.0157,-0.0168 -0.0234,-0.0254 -0.0308,-0.0341 -0.0629,-0.0675 -0.0937,-0.10156 -3.17623,-3.53854 -6.45493,-6.90381 -10.03321,-10.2832 -0.77952,-0.74404 -1.57121,-1.47907 -2.36523,-2.21289 -4.34117,-4.0631 -8.89553,-7.97967 -13.66992,-11.72852 -0.46567,-0.36564 -0.89833,-0.73101 -1.35156,-1.0957 -9.6742,-8.1551 -13.80213,-13.00371 -21.25586,-24.12695 -6.45691,-9.63549 -15.09877,-26.48586 -39.57227,-77.16407 -8.522,-17.64678 -16.83057,-32.90153 -25.2832,-46.36718 -12.33141,-19.64484 -24.97191,-35.44474 -39.05078,-49 -32.82932,-31.60846 -71.1836,-49.51513 -122.37891,-57.13477 -2.33211,-0.3471 -5.30089,-0.6436 -8.66602,-0.89648 -3.59162,-0.33055 -7.48028,-0.54044 -12.46484,-0.66016 -0.22225,-0.008 -0.44034,-0.0157 -0.66406,-0.0234 -0.30323,-0.0146 -0.59128,-0.0328 -0.89649,-0.0469 -6.92737,-0.44127 -13.83397,-0.65762 -20.7207,-0.62891 z"
         style="fill:#4d4d4d;fill-opacity:1;stroke-width:0.99999994"
         inkscape:connector-curvature="0" />
    </g>
  </g>
</svg>
