<?xml version="1.0" encoding="UTF-8" standalone="no"?>
<!-- Created with Inkscape (http://www.inkscape.org/) -->

<svg
   xmlns:dc="http://purl.org/dc/elements/1.1/"
   xmlns:cc="http://creativecommons.org/ns#"
   xmlns:rdf="http://www.w3.org/1999/02/22-rdf-syntax-ns#"
   xmlns:svg="http://www.w3.org/2000/svg"
   xmlns="http://www.w3.org/2000/svg"
   xmlns:sodipodi="http://sodipodi.sourceforge.net/DTD/sodipodi-0.dtd"
   xmlns:inkscape="http://www.inkscape.org/namespaces/inkscape"
   width="1024"
   height="1024"
   viewBox="0 0 270.93333 270.93334"
   version="1.1"
   id="svg8"
   inkscape:version="0.92.2 2405546, 2018-03-11"
   sodipodi:docname="logo.svg">
  <defs
     id="defs2" />
  <sodipodi:namedview
     id="base"
     pagecolor="#ffffff"
     bordercolor="#666666"
     borderopacity="1.0"
     inkscape:pageopacity="0.0"
     inkscape:pageshadow="2"
     inkscape:zoom="0.49497475"
     inkscape:cx="-349.97401"
     inkscape:cy="684.55011"
     inkscape:document-units="px"
     inkscape:current-layer="layer1"
     showgrid="false"
     units="px"
     inkscape:window-width="1920"
     inkscape:window-height="1052"
     inkscape:window-x="0"
     inkscape:window-y="28"
     inkscape:window-maximized="1" />
  <metadata
     id="metadata5">
    <rdf:RDF>
      <cc:Work
         rdf:about="">
        <dc:format>image/svg+xml</dc:format>
        <dc:type
           rdf:resource="http://purl.org/dc/dcmitype/StillImage" />
        <dc:title></dc:title>
      </cc:Work>
    </rdf:RDF>
  </metadata>
  <g
     inkscape:label="Layer 1"
     inkscape:groupmode="layer"
     id="layer1"
     transform="translate(0,-26.06665)">
    <path
       inkscape:connector-curvature="0"
       style="fill:#4d4d4d;fill-opacity:1;stroke-width:0.23977496"
       d="m 90.888712,36.384007 c -0.67817,0.0014 -1.387743,0.06002 -2.112547,0.164378 -1.225101,0.147983 -2.424833,0.41625 -3.59241,0.800342 -3.781697,1.199602 -7.116816,3.529475 -9.894933,6.849977 -0.06938,0.08151 -0.137798,0.165019 -0.206525,0.247737 -2.959742,3.562259 -5.304744,8.241232 -6.779731,13.912101 -0.328711,1.263791 -0.610599,2.570755 -0.849047,3.910861 -0.138477,0.713517 -0.270164,1.434813 -0.386356,2.173429 -0.120893,0.768477 -0.217458,1.780323 -0.290821,2.934432 -0.37181,4.136813 -0.357838,8.488391 0.04167,12.869174 0.067,0.954192 0.148228,1.821461 0.247269,2.530749 0.08387,0.600633 0.176319,1.198878 0.272557,1.795504 0.287927,1.930985 0.648867,3.855442 1.086479,5.757409 2.844461,12.36274 8.425823,23.29798 15.351219,31.11877 0.316997,0.3622 0.636394,0.72047 0.960505,1.07196 1.039711,1.12753 2.14693,2.19478 3.299715,3.192 4.436552,3.90826 9.256618,6.57797 14.161254,7.64611 0.33476,0.0755 0.66794,0.14363 0.9975,0.20091 0.0159,0.003 0.0675,0.005 0.0889,0.009 0.31131,0.0525 0.62256,0.10107 0.93428,0.14049 0.82174,0.10389 2.40306,0.14171 3.51375,0.0843 0.93838,-0.0485 1.85847,-0.16239 2.75927,-0.33718 0.16175,-0.0254 0.31546,-0.0521 0.45427,-0.0815 0.18016,-0.0381 0.36863,-0.0844 0.56057,-0.13442 0.91811,-0.21855 1.81664,-0.52221 2.76958,-0.92958 0.13311,-0.0556 0.26422,-0.11612 0.39619,-0.17468 0.0512,-0.023 0.10248,-0.0457 0.15407,-0.0693 0.42156,-0.19142 0.83902,-0.39334 1.24852,-0.61489 0.004,-0.002 0.009,-0.004 0.0131,-0.007 2.4e-4,-1.6e-4 7.1e-4,-2.4e-4 9.5e-4,-4.7e-4 0.0262,-0.0142 0.052,-0.0297 0.0782,-0.044 0.23159,-0.12532 0.46134,-0.2536 0.68796,-0.38776 0.29645,-0.16946 0.58232,-0.34131 0.84763,-0.5142 0.1915,-0.12478 0.39806,-0.27357 0.61068,-0.43365 3.71267,-2.63551 6.67659,-6.52258 8.8417,-11.27176 7.3e-4,-0.001 0.001,-0.003 0.002,-0.004 10e-4,-0.003 0.002,-0.005 0.003,-0.009 0.11886,-0.26101 0.23531,-0.52435 0.34936,-0.79051 1.01656,-2.34226 1.86269,-4.90883 2.512,-7.68545 3.97643,-17.004169 -0.42282,-39.300329 -10.8484,-54.981526 -1.11225,-1.672952 -2.30493,-3.277643 -3.55401,-4.7955 -1.77224,-2.171178 -3.64001,-4.125469 -5.5729,-5.8403 -0.0653,-0.05844 -0.13082,-0.114914 -0.19622,-0.172807 -0.1247,-0.109331 -0.24989,-0.217684 -0.37511,-0.325007 -1.82175,-1.578065 -3.68309,-2.945467 -5.53403,-4.040115 -4.081051,-2.413542 -8.160351,-3.627452 -12.04496,-3.741333 -0.336078,-0.01511 -0.671727,-0.0246 -1.006868,-0.02389 z m 95.303528,0.0061 c -4.86375,0.07226 -10.05672,1.880399 -15.21447,5.588349 -5.21403,3.748398 -9.86964,9.073393 -13.69808,15.352624 -0.0407,0.06656 -0.0808,0.133662 -0.12129,0.200436 -0.20129,0.33273 -0.40049,0.668 -0.5971,1.005932 -0.0871,0.149379 -0.17381,0.29921 -0.25991,0.449577 -0.16583,0.290007 -0.32985,0.581667 -0.49219,0.875272 -0.0941,0.170063 -0.18764,0.340621 -0.28053,0.511865 -0.1452,0.267802 -0.28854,0.537221 -0.43084,0.807834 -0.12192,0.231926 -0.24279,0.464767 -0.36247,0.69872 -0.12977,0.253431 -0.25822,0.508092 -0.38542,0.763815 -0.0739,0.148648 -0.14812,0.296883 -0.22105,0.446299 -0.19982,0.408632 -0.39595,0.820363 -0.58913,1.234467 -0.019,0.0407 -0.0378,0.08149 -0.0567,0.122229 -4.82379,10.388562 -7.54097,22.442558 -7.21853,34.034935 0.0113,0.407106 0.0271,0.81085 0.0454,1.212923 0.004,0.09448 0.009,0.188151 0.0135,0.28239 0.006,0.133206 0.0128,0.266836 0.0202,0.399466 0.0557,1.04928 0.13626,2.08372 0.24213,3.10116 0.008,0.0745 0.0135,0.15932 0.0211,0.22853 0.0196,0.18076 0.0419,0.36009 0.0633,0.53996 10e-4,0.0133 0.003,0.0265 0.004,0.0398 0.0288,0.24262 0.059,0.48445 0.0909,0.72542 0.0139,0.10608 0.0282,0.21182 0.0426,0.31751 0.0197,0.14291 0.0396,0.28574 0.0604,0.42804 0.0723,0.50158 0.15053,0.99832 0.2351,1.49063 0.008,0.0418 0.0148,0.0833 0.022,0.12504 0.031,0.17781 0.0621,0.35544 0.0946,0.532 0.0414,0.22737 0.0844,0.45307 0.12832,0.67811 2.78396,14.27221 10.60556,23.83426 21.2271,25.14405 3.93624,0.4854 8.11286,-0.29321 12.26366,-2.21135 2.07923,-0.94698 4.15164,-2.1578 6.08194,-3.57414 0.43464,-0.31892 0.93758,-0.7296 1.47706,-1.1956 1.91808,-1.56196 3.76413,-3.35729 5.52044,-5.35514 0.50786,-0.57106 1.00705,-1.15908 1.49906,-1.76038 0.58939,-0.69157 1.11091,-1.34116 1.52716,-1.91117 0.31151,-0.42658 0.61636,-0.85865 0.91835,-1.293 2.51491,-3.53023 4.73917,-7.42196 6.52778,-11.47033 3.23288,-7.3173 5.34944,-15.074766 6.28848,-22.686838 0.0674,-0.508417 0.13165,-1.018372 0.19061,-1.530438 0.0552,-0.480287 0.10172,-1.071963 0.14095,-1.726661 0.29723,-3.745634 0.30033,-7.433627 0.004,-10.994994 -0.0365,-0.589343 -0.0792,-1.117488 -0.13019,-1.544957 -0.0629,-0.527412 -0.13324,-1.048635 -0.20794,-1.56603 -0.25725,-1.891366 -0.60158,-3.740185 -1.03916,-5.532152 -1.07711,-4.41093 -2.6333,-8.238212 -4.56837,-11.437078 -0.22773,-0.382539 -0.45991,-0.759474 -0.69919,-1.126287 -0.22437,-0.34395 -0.48148,-0.703419 -0.76241,-1.071027 -1.78598,-2.447693 -3.82567,-4.437678 -6.05806,-5.94286 -0.001,-7.43e-4 -0.002,-0.0016 -0.003,-0.0024 -0.33205,-0.236316 -0.65099,-0.444499 -0.95021,-0.618638 -0.26484,-0.154136 -0.53153,-0.300919 -0.79941,-0.442085 -0.089,-0.04694 -0.17847,-0.09264 -0.26787,-0.138153 -2.8852,-1.500437 -6.03504,-2.254803 -9.33765,-2.205742 z M 24.639169,101.15369 c -4.054099,0.0133 -7.768117,1.07945 -11.094745,3.18967 -0.02731,0.0173 -0.05427,0.035 -0.08148,0.0524 -0.101363,0.0649 -0.203294,0.12839 -0.303934,0.19528 -0.131761,0.0876 -0.261252,0.17798 -0.390572,0.26835 -5.0740438,3.54547 -8.2706378,9.23027 -9.6935585,17.24085 -0.1811188,1.01965 -0.3035625,2.47474 -0.3690275,4.09772 -0.1267335,2.01027 -0.1182915,4.06559 0.017333,6.15079 0.065885,1.45358 0.1751531,2.79914 0.3315654,3.85138 2.2904283,15.4085 10.0933376,30.75339 21.3643236,42.01448 1.308752,1.3076 2.646773,2.5363 4.00546,3.68561 0.376821,0.32982 0.72703,0.62507 1.03918,0.87433 0.215283,0.1719 0.433262,0.33676 0.650016,0.50484 0.169402,0.13326 0.339121,0.26453 0.509051,0.39525 0.03038,0.023 0.06045,0.0468 0.09086,0.0698 5.878534,4.50409 12.062038,7.48771 17.956898,8.60005 0.986801,0.18622 2.169551,0.27924 3.752103,0.28942 0.0031,1e-5 0.0059,-2e-5 0.0089,0 0.146271,0.002 0.292204,0.004 0.439743,0.005 0.849078,0.0317 1.668216,0.0137 2.479705,-0.0576 2.147583,-0.0772 2.934567,-0.21928 4.444266,-0.70247 0.54734,-0.17518 1.079369,-0.36904 1.598812,-0.57837 0.927306,-0.3669 1.808357,-0.7942 2.646423,-1.28082 0.0187,-0.0108 0.03708,-0.022 0.05572,-0.0328 0.136215,-0.0797 0.271192,-0.16105 0.405089,-0.244 5.43845,-3.32561 8.93965,-9.03645 10.525737,-17.17013 0.134373,-0.68908 0.247226,-1.62042 0.33531,-2.68249 0.145236,-1.4299 0.218378,-2.92786 0.220575,-4.50983 0.0049,-0.51926 0.0037,-1.04046 -0.0085,-1.56509 -0.0088,-1.4901 -0.05995,-2.89692 -0.171402,-3.97783 -0.871728,-8.45405 -3.60841,-16.99387 -7.643295,-24.84668 -0.03851,-0.0753 -0.07599,-0.15111 -0.114737,-0.2262 -4.08e-4,-7.1e-4 -9.83e-4,-10e-4 -0.0014,-0.002 -0.0028,-0.005 -0.0056,-0.0109 -0.0084,-0.0164 -1.853246,-3.58913 -3.973787,-7.01062 -6.302992,-10.20496 -0.02715,-0.0374 -0.05427,-0.0746 -0.08148,-0.11192 -0.167636,-0.22903 -0.336468,-0.45663 -0.506243,-0.68326 -0.101461,-0.13585 -0.203109,-0.27149 -0.305339,-0.40651 -0.078,-0.10269 -0.156195,-0.20502 -0.234624,-0.30721 -7.373741,-9.63803 -16.695751,-17.11653 -26.424888,-20.31296 -1.286271,-0.4226 -2.547408,-0.75828 -3.783012,-1.00968 -0.01779,-0.004 -0.0356,-0.008 -0.05338,-0.0122 -0.127388,-0.0275 -0.264585,-0.052 -0.400875,-0.0768 -0.04178,-0.008 -0.08379,-0.0163 -0.125506,-0.0239 -0.02259,-0.004 -0.04509,-0.008 -0.06791,-0.0117 -1.616011,-0.29173 -3.186974,-0.43631 -4.709797,-0.43132 z m 221.329631,0.0712 c -0.27635,0.001 -0.55414,0.009 -0.83313,0.0197 -1.55755,0.0379 -3.06462,0.18085 -4.23727,0.43506 -10.43561,2.26225 -20.76419,9.49641 -29.11814,19.98423 -4.30238,5.35816 -8.0363,11.51481 -10.90742,18.17419 -2.85116,6.52237 -4.60734,12.97129 -5.26522,19.32671 -0.0119,0.11006 -0.0234,0.21986 -0.0347,0.32968 -0.003,0.0317 -0.005,0.0634 -0.009,0.0951 -0.32375,3.20447 -0.35922,6.30527 -0.10768,9.24164 0.34947,4.79521 1.31247,8.44322 3.17702,12.17982 1.12169,2.24786 1.91916,3.45897 3.37605,5.01513 0.38883,0.43523 0.79533,0.85039 1.21714,1.24711 0.0653,0.0626 0.13104,0.12475 0.19716,0.18639 0.0581,0.0532 0.11602,0.10638 0.17468,0.15875 0.83491,0.75997 1.72926,1.44471 2.68295,2.04699 0.019,0.0121 0.0376,0.0249 0.0567,0.037 0.10128,0.0635 0.20412,0.12476 0.30674,0.18638 0.14311,0.0868 0.287,0.17229 0.43225,0.25523 0.0206,0.0116 0.0412,0.0231 0.0619,0.0347 1.80093,1.01957 3.7627,1.74893 5.87261,2.1753 0.34801,0.0704 0.75745,0.1281 1.20309,0.17562 0.43364,0.0493 0.90989,0.0827 1.40259,0.10768 0.0367,0.002 0.0741,0.003 0.11099,0.006 0.12869,0.006 0.25218,0.0143 0.38354,0.0187 0.67726,0.0304 1.37081,0.0324 2.07884,0.003 1.3858,-0.0302 2.7447,-0.1313 3.78301,-0.31237 4.19304,-0.7312 9.01251,-2.61479 13.27473,-5.18795 1.36351,-0.82317 2.81605,-1.82686 4.29113,-2.94613 1.89114,-1.41605 3.72249,-2.96101 5.48345,-4.61895 2.13163,-1.97726 4.13798,-4.0611 5.80143,-6.06789 7.27841,-8.78083 12.93792,-19.71951 15.56617,-30.08662 0.60372,-2.38139 1.06095,-4.7086 1.37917,-6.97033 0.0646,-0.43575 0.12647,-0.87156 0.18171,-1.30706 0.0427,-0.33679 0.0796,-0.72763 0.11239,-1.15111 0.34138,-3.49516 0.33497,-6.81172 0.001,-9.90007 -0.0356,-0.4391 -0.0771,-0.82965 -0.12456,-1.15486 -0.0829,-0.5684 -0.17883,-1.12421 -0.28239,-1.67281 -0.008,-0.0438 -0.0162,-0.0874 -0.0244,-0.13112 -0.0264,-0.13745 -0.0529,-0.27499 -0.0806,-0.41118 -1.93292,-9.74868 -7.47313,-16.71031 -15.93802,-18.94645 -1.05755,-0.27937 -2.49562,-0.4553 -4.02888,-0.52825 -0.53389,-0.0335 -1.0729,-0.0503 -1.61753,-0.0473 z m -111.3427,42.35401 c -0.81625,0.003 -1.63142,0.0224 -2.44551,0.0534 -1.14607,0.0258 -2.20869,0.0724 -3.11333,0.14284 -0.78133,0.0293 -1.4625,0.0714 -2.09569,0.12972 -0.80684,0.0607 -1.51826,0.13173 -2.07743,0.21496 -4.27517,0.63628 -8.20753,1.59145 -11.8534,2.89041 -0.0177,0.006 -0.0353,0.0125 -0.053,0.0187 -0.3608,0.12897 -0.71868,0.26174 -1.07384,0.39758 -3.46666,1.32597 -6.66834,2.98003 -9.64673,4.99407 -0.01,0.007 -0.019,0.0129 -0.0286,0.0192 -0.1929,0.13066 -0.38544,0.26205 -0.57649,0.39572 -0.2221,0.15224 -0.44565,0.30134 -0.66594,0.45754 -0.26424,0.18739 -0.56578,0.42181 -0.88323,0.67765 -5.674812,4.33184 -10.52846,10.09083 -14.897427,17.52325 -0.708239,1.20484 -1.786736,3.26653 -3.036056,5.7677 -0.873642,1.71847 -1.773564,3.56549 -2.712455,5.56962 -0.903972,1.89843 -1.830585,3.87911 -2.739148,5.86841 -1.392718,3.04932 -2.577348,5.4952 -3.666403,7.51217 -0.0031,0.005 -0.0063,0.0125 -0.0093,0.0183 -0.0014,0.002 -0.0028,0.005 -0.0042,0.008 -2.399549,4.43932 -4.336973,6.79255 -7.015291,8.91241 -1.088116,0.86124 -2.124239,1.75078 -3.115202,2.66468 -1.514821,1.36384 -2.790196,2.6799 -4.043861,4.15673 -0.650233,0.76599 -1.269777,1.54952 -1.862002,2.34764 -4.88954,6.51093 -7.82119,14.04504 -8.753661,22.53604 -0.09237,0.84116 -0.140363,1.9423 -0.155946,3.13628 -0.04459,1.5044 -0.01472,3.01183 0.09085,4.51638 0.08791,1.64758 0.231247,3.16315 0.419606,4.19326 1.46252,7.99834 4.620906,15.02032 9.436925,20.9803 0.232589,0.28784 0.513241,0.61338 0.820948,0.95863 1.104234,1.29046 2.280177,2.51658 3.52029,3.6739 0.06039,0.0569 0.121477,0.11298 0.182173,0.16953 0.179465,0.16567 0.359293,0.33083 0.541367,0.4936 0.232091,0.20929 0.466619,0.41572 0.702934,0.62004 0.805102,0.73363 1.554222,1.38106 2.137369,1.82689 6.055515,4.62945 13.732493,7.80016 21.632199,8.93442 0.42987,0.0618 0.994731,0.11003 1.634872,0.14799 1.340879,0.12742 2.703599,0.18752 4.110829,0.17421 1.202884,10e-4 2.406046,-0.0562 3.68139,-0.17749 1.253858,-0.0625 2.356035,-0.15163 3.0637,-0.27209 0.85719,-0.1459 3.28746,-0.63507 5.40102,-1.08695 8.35489,-1.78628 16.01379,-2.78345 23.91146,-3.08897 1.14797,-0.0306 2.35183,-0.0549 3.65657,-0.0736 0.90197,-0.0129 1.76658,-0.021 2.60849,-0.0258 0.84382,0.005 1.69124,0.0156 2.54668,0.0356 10.20477,0.23803 17.22264,1.06181 27.05336,3.17608 5.35734,1.15218 8.15711,1.52497 11.79627,1.49203 1.98738,0.0194 3.97895,-0.10172 5.95831,-0.35872 4.70842,-0.54364 8.78056,-1.73525 13.20729,-3.83031 0.1303,-0.0602 0.25987,-0.1221 0.38964,-0.18358 0.0483,-0.0234 0.0963,-0.0463 0.1447,-0.0698 0.86507,-0.41363 1.71831,-0.85373 2.55745,-1.32157 1.95425,-1.07288 3.63188,-2.16175 5.28255,-3.44489 0.44851,-0.33912 0.89257,-0.6843 1.32859,-1.04058 0.48825,-0.39898 1.03717,-0.88753 1.61614,-1.43116 1.37399,-1.24169 2.6781,-2.57517 3.90711,-3.99423 0.2152,-0.24707 0.42716,-0.49636 0.63644,-0.74742 0.0206,-0.0248 0.0413,-0.0496 0.0619,-0.0744 0.0491,-0.0591 0.0987,-0.11809 0.14752,-0.17749 0.77014,-0.89722 1.46254,-1.75381 1.98235,-2.47923 0.33352,-0.46543 0.68896,-1.00959 1.05324,-1.59928 3.61615,-5.45086 5.89064,-11.47607 6.78956,-18.00748 0.96636,-6.49048 0.51457,-12.96061 -1.25039,-19.06398 -1.83499,-6.49961 -5.13538,-12.47454 -9.74133,-17.61269 -0.0436,-0.0491 -0.0866,-0.0998 -0.13019,-0.14846 -0.002,-0.002 -0.003,-0.004 -0.005,-0.007 -0.008,-0.009 -0.0151,-0.0161 -0.0224,-0.0244 -0.76157,-0.84845 -1.54772,-1.65536 -2.4057,-2.46566 -0.18691,-0.17839 -0.37675,-0.35464 -0.56713,-0.53059 -1.0409,-0.97423 -2.13293,-1.91333 -3.2777,-2.81221 -0.11167,-0.0876 -0.2154,-0.17527 -0.32408,-0.26272 -2.31962,-1.95539 -3.3094,-3.11796 -5.09662,-5.78504 -1.5482,-2.31035 -3.62031,-6.35064 -9.48844,-18.50201 -2.04336,-4.23126 -4.03555,-7.88897 -6.06228,-11.11769 -2.95676,-4.71034 -5.98763,-8.49876 -9.3634,-11.74897 -7.87164,-7.57892 -17.06804,-11.87249 -29.3434,-13.69949 -0.55918,-0.0832 -1.27102,-0.15432 -2.07789,-0.21496 -0.86118,-0.0793 -1.79359,-0.12958 -2.98876,-0.15829 -0.0533,-0.002 -0.10562,-0.003 -0.15923,-0.005 -0.0727,-0.003 -0.14177,-0.008 -0.21495,-0.0113 -1.66102,-0.10584 -3.31704,-0.15768 -4.96831,-0.15079 z"
       id="path4623" />
  </g>
</svg>
